<svg width="432" height="432" viewBox="0 0 432 432" fill="none" xmlns="http://www.w3.org/2000/svg">
  <!-- Android Adaptive Icon - Foreground Layer (432x432) -->
  <!-- Safe zone: 108px from edges (center 216x216 is guaranteed visible) -->
  <!-- Export this as PNG with transparency -->

  <!-- Location Pin with Church (Centered, safe zone aware) -->
  <g transform="translate(216, 216)">
    <!-- Location Pin Shape -->
    <path d="M0 -100C-45 -100 -80 -65 -80 -20C-80 45 0 120 0 120C0 120 80 45 80 -20C80 -65 45 -100 0 -100Z"
          fill="white"
          stroke="white"
          stroke-width="5"/>

    <!-- Church Spire -->
    <g fill="#3b82f6">
      <path d="M0 -75L-18 -35H18L0 -75Z"/>
      <rect x="-15" y="-35" width="30" height="50" rx="1"/>
      <rect x="-30" y="-10" width="15" height="25" rx="1"/>
      <rect x="15" y="-10" width="15" height="25" rx="1"/>
      <rect x="-10" y="-25" width="20" height="18" rx="10" fill="#6366f1" opacity="0.4"/>
      <circle cx="-20" cy="-2" r="5" fill="#6366f1" opacity="0.4"/>
      <circle cx="20" cy="-2" r="5" fill="#6366f1" opacity="0.4"/>
      <rect x="-10" y="5" width="20" height="10" rx="10" ry="0" fill="#1e40af"/>
    </g>
  </g>
</svg>
