<svg width="400" height="400" viewBox="0 0 400 400" fill="none" xmlns="http://www.w3.org/2000/svg">
  <!-- Splash Screen Icon (centered logo for loading screens) -->

  <defs>
    <linearGradient id="splashGradient" x1="0%" y1="0%" x2="0%" y2="100%">
      <stop offset="0%" style="stop-color:#6366f1;stop-opacity:1" />
      <stop offset="100%" style="stop-color:#3b82f6;stop-opacity:1" />
    </linearGradient>
  </defs>

  <!-- Location Pin -->
  <path d="M200 40C140 40 92 88 92 148C92 232 200 360 200 360C200 360 308 232 308 148C308 88 260 40 200 40Z"
        fill="url(#splashGradient)"
        stroke="#1e40af"
        stroke-width="6"/>

  <!-- Church Spire -->
  <g fill="white">
    <path d="M200 95L174 140H226L200 95Z"/>
    <rect x="184" y="140" width="32" height="60" rx="2"/>
    <rect x="160" y="170" width="24" height="30" rx="2"/>
    <rect x="216" y="170" width="24" height="30" rx="2"/>
    <rect x="189" y="154" width="22" height="20" rx="11" fill="#3b82f6" opacity="0.3"/>
    <circle cx="168" cy="182" r="5" fill="#3b82f6" opacity="0.3"/>
    <circle cx="232" cy="182" r="5" fill="#3b82f6" opacity="0.3"/>
    <rect x="189" y="183" width="22" height="17" rx="11" ry="0" fill="#1e40af" opacity="0.5"/>
  </g>
</svg>
