<svg width="512" height="512" viewBox="0 0 512 512" fill="none" xmlns="http://www.w3.org/2000/svg">
  <!-- TownApp Icon: Location pin with Icelandic church spire -->
  <defs>
    <linearGradient id="brandGradient" x1="0%" y1="0%" x2="0%" y2="100%">
      <stop offset="0%" style="stop-color:#6366f1;stop-opacity:1" />
      <stop offset="100%" style="stop-color:#3b82f6;stop-opacity:1" />
    </linearGradient>
  </defs>

  <!-- Location Pin Outline -->
  <path d="M256 48C176.5 48 112 112.5 112 192C112 304 256 464 256 464C256 464 400 304 400 192C400 112.5 335.5 48 256 48Z"
        fill="url(#brandGradient)"
        stroke="#1e40af"
        stroke-width="8"/>

  <!-- Church Spire (Icelandic Architecture) -->
  <g fill="white">
    <!-- Main spire -->
    <path d="M256 120L220 180H292L256 120Z"/>

    <!-- Church body -->
    <rect x="230" y="180" width="52" height="80" rx="2"/>

    <!-- Side wings -->
    <rect x="200" y="220" width="30" height="40" rx="2"/>
    <rect x="282" y="220" width="30" height="40" rx="2"/>

    <!-- Windows -->
    <rect x="245" y="200" width="22" height="28" rx="11" fill="#3b82f6" opacity="0.3"/>
    <circle cx="210" cy="235" r="6" fill="#3b82f6" opacity="0.3"/>
    <circle cx="302" cy="235" r="6" fill="#3b82f6" opacity="0.3"/>

    <!-- Door -->
    <rect x="245" y="240" width="22" height="20" rx="11" ry="0" fill="#1e40af" opacity="0.5"/>
  </g>
</svg>
