<svg width="352" height="448" viewBox="0 0 352 448" fill="none" xmlns="http://www.w3.org/2000/svg">
  <!-- TownApp Icon: Heart in Location Pin - Heart moved lower -->

  <!-- Location Pin -->
  <path d="M176 0C79 0 0 79 0 176C0 308 176 448 176 448C176 448 352 308 352 176C352 79 273 0 176 0Z"
        fill="#3b82f6"/>

  <!-- Heart - Moved down -->
  <path d="M176 340
           C176 340 50 220 50 150
           C50 100 90 65 140 65
           C165 65 176 90 176 90
           C176 90 187 65 212 65
           C262 65 302 100 302 150
           C302 220 176 340 176 340Z"
        fill="white"/>
</svg>
